<svg width="152" height="31" viewBox="0 0 152 31" fill="none" xmlns="http://www.w3.org/2000/svg">
<rect x="35" y="1" width="116" height="29" stroke="black" stroke-width="2"/>
<path d="M66.75 21.25V9H70.25V19.5H77.25V21.25H66.75ZM84.25 10.75V9H87.75V10.75H84.25ZM80.75 21.25V19.5H84.25V14.25H82.5V12.5H87.75V19.5H91.25V21.25H80.75ZM93 21.25V9H96.5V16H100V14.25H101.75V12.5H105.25V14.25H103.5V16H101.75V17.75H103.5V19.5H105.25V21.25H101.75V19.5H100V17.75H96.5V21.25H93ZM108.75 21.25V19.5H107V14.25H108.75V12.5H117.5V14.25H119.25V17.75H110.5V19.5H117.5V21.25H108.75ZM110.5 16H115.75V14.25H110.5V16Z" fill="black"/>
<path d="M6 4H3V7H6V4Z" fill="black"/>
<path d="M9 4H6V7H9V4Z" fill="black"/>
<path d="M3 7H0V10H3V7Z" fill="black"/>
<path d="M3 10H0V13H3V10Z" fill="black"/>
<path d="M3 13H0V16H3V13Z" fill="black"/>
<path d="M12 4H9V7H12V4Z" fill="black"/>
<path d="M6 16H3V19H6V16Z" fill="black"/>
<path d="M9 19H6V22H9V19Z" fill="black"/>
<path d="M12 22H9V25H12V22Z" fill="black"/>
<path d="M21 4H24V7H21V4Z" fill="black"/>
<path d="M18 4H21V7H18V4Z" fill="black"/>
<path d="M24 7H27V10H24V7Z" fill="black"/>
<path d="M24 10H27V13H24V10Z" fill="black"/>
<path d="M24 13H27V16H24V13Z" fill="black"/>
<path d="M15 4H18V7H15V4Z" fill="black"/>
<path d="M21 16H24V19H21V16Z" fill="black"/>
<path d="M18 19H21V22H18V19Z" fill="black"/>
<path d="M15 22H18V25H15V22Z" fill="black"/>
<path d="M15 7H12V10H15V7Z" fill="black"/>
<path d="M15 25H12V28H15V25Z" fill="black"/>
</svg>
